# xmcd
#
# Track frame offsets:
#	150
#	18281
#	40536
#	67926
#
# Disc length: 1198 seconds
#
# Revision: 1
# Processed by: cddbd v1.5.2PL0 Copyright (c) Steve Scherf et al.
# Submitted via: EasyCDDAExtractor 11.0.2.1
#
DISCID=2204ac04
DTITLE=X-Kameron - Why Don't You Want My Love [CD-Single)
DYEAR=1994
DGENRE=Euro-Dance
TTITLE0=Why Don't You Want My Love (Radio Version)
TTITLE1=Why Don't You Want My Love (Burning World Mix)
TTITLE2=Why Don't You Want My Love (Serious World Mix)
TTITLE3=Why Don't You Want My Love (Instrumental Version)
EXTD=YEAR: 2005
EXTT0=
EXTT1=
EXTT2=
EXTT3=
PLAYORDER=
